<?xml version="1.0" encoding="UTF-8" standalone="no"?>
<!-- Created with Inkscape (http://www.inkscape.org/) -->

<svg
   xmlns:dc="http://purl.org/dc/elements/1.1/"
   xmlns:cc="http://creativecommons.org/ns#"
   xmlns:rdf="http://www.w3.org/1999/02/22-rdf-syntax-ns#"
   xmlns:svg="http://www.w3.org/2000/svg"
   xmlns="http://www.w3.org/2000/svg"
   xmlns:sodipodi="http://sodipodi.sourceforge.net/DTD/sodipodi-0.dtd"
   xmlns:inkscape="http://www.inkscape.org/namespaces/inkscape"
   id="svg4326"
   version="1.1"
   inkscape:version="0.91+devel+osxmenu r12844"
   xml:space="preserve"
   width="87.608505"
   height="72.075104"
   viewBox="0 0 87.608506 72.075104"
   sodipodi:docname="gm-logo-bw-contour.svg"><metadata
     id="metadata4332"><rdf:RDF><cc:Work
         rdf:about=""><dc:format>image/svg+xml</dc:format><dc:type
           rdf:resource="http://purl.org/dc/dcmitype/StillImage" /><dc:title></dc:title></cc:Work></rdf:RDF></metadata><defs
     id="defs4330" /><sodipodi:namedview
     pagecolor="#ffffff"
     bordercolor="#666666"
     borderopacity="1"
     objecttolerance="10"
     gridtolerance="10"
     guidetolerance="10"
     inkscape:pageopacity="0"
     inkscape:pageshadow="2"
     inkscape:window-width="1502"
     inkscape:window-height="995"
     id="namedview4328"
     showgrid="false"
     inkscape:zoom="5.6568542"
     inkscape:cx="2.4161213"
     inkscape:cy="48.660876"
     inkscape:window-x="183"
     inkscape:window-y="50"
     inkscape:window-maximized="0"
     inkscape:current-layer="g4336"
     fit-margin-top="0"
     fit-margin-left="0"
     fit-margin-right="0"
     fit-margin-bottom="0" /><g
     id="g4334"
     inkscape:groupmode="layer"
     inkscape:label="ink_ext_XXXXXX"
     transform="matrix(1.3333333,0,0,-1.3333333,0.96927079,72.074395)"><g
       id="g4336"
       transform="scale(0.1,0.1)"><path
         style="fill:#4f4c4c;fill-opacity:1;fill-rule:nonzero;stroke:none"
         d="m 85.240234,-0.24023438 c -0.569047,-0.0308462 -1.178037,0.15053418 -1.673828,0.59375 L 84.232422,1.0976562 83.5625,0.35546875 47.511719,32.808594 c -1.60822,-1.977265 -3.501916,-4.294519 -4.667969,-5.742188 -1.771521,-2.199366 -3.048202,-2.856132 -4.480469,-2.822265 -1.915066,0.0452 -2.938486,0.479303 -4.552734,2.480468 l -4.681641,6.271485 c -2.27971,-2.681177 -4.710361,-5.545505 -6.541015,-7.685547 -1.482058,-1.732532 -2.746262,-3.203447 -3.681641,-4.28125 -0.467689,-0.538901 -0.853501,-0.979171 -1.144531,-1.306641 -0.29103,-0.327469 -0.444271,-0.505165 -0.615235,-0.666015 -0.744046,-0.700024 -1.587658,-0.734743 -2.298828,-0.802735 -0.672254,-0.06427 -1.212313,-0.0453 -1.273437,-0.04297 0,0 -2.552444,-0.0052 -5.1230471,-0.0078 -1.2853019,-0.0013 -2.5739155,-0.0029 -3.5527344,-0.002 -0.4894096,4.93e-4 -0.9016175,0.0025 -1.1972656,0.0039 -0.147824,7.2e-4 -0.2661758,8.87e-4 -0.3535157,0.002 -0.04367,4.94e-4 -0.078345,0.0012 -0.109375,0.002 -0.00416,9.4e-5 -0.020338,0.0024 -0.021484,0.002 l -0.1113281,0 -0.066406,0.0078 c -0.2789312,0.03668 -0.3132208,0.05396 -0.089844,0.02148 l -0.00586,0.002 C 0.98794068,18.586263 -0.5,20.299742 -0.5,22.34375 c -1e-8,1.270961 0.64767695,2.223927 1.34179688,3.044922 l 0.003906,-0.0039 C 0.92778872,25.481922 9.6446933,35.480015 18.400391,45.654297 17.630012,46.598836 1.59558,66.258035 1.5742188,66.289062 0.91432277,67.069796 0.46875,67.72852 0.46875,68.689453 c 0,1.559893 1.1303357,2.854167 2.6152344,3.117188 0.017707,0.0021 0.038021,0.0125 0.054687,0.01563 l 0.048828,0 c 0.14636,0.02083 10.3535156,0 10.3535156,0 0,0 1.952452,6.5e-4 2.886718,-0.572266 0.936534,-0.572917 2.548829,-2.617188 2.548828,-2.617188 l 9.232422,-11.505859 c 1.786954,2.116205 3.433711,4.079523 4.710938,5.638672 l 0.0039,0.0059 0.0059,0.0059 c 1.845767,2.179709 3.469192,3.220361 5.271484,3.177734 C 39.259803,65.928854 40.172641,65.721678 41,65.25 c 0.827359,-0.471678 1.541293,-1.14759 2.445312,-2.080078 1.625778,-1.676971 3.536167,-4.544249 4.25586,-5.640625 l 9.294922,11.103515 c 0.781433,0.933382 1.610341,2.044271 2.546875,2.617188 0.937466,0.572916 2.888672,0.572266 2.888672,0.572266 0,0 10.740272,0.02083 10.888671,0 l 0.04688,0 c 0.01827,-0.0031 0.03762,-0.01354 0.05469,-0.01563 1.486,-0.263021 2.617187,-1.557295 2.617187,-3.117188 0,-0.960933 -0.446668,-1.619657 -1.105468,-2.400391 C 74.922136,66.27436 65.727975,55.095096 56.722656,44.095703 58.167109,42.09352 81.618558,9.5889121 86.779297,2.5175781 l -0.02344,0.029297 c 0.325483,-0.4137147 0.438355,-1.026724 0.285157,-1.5 C 86.887817,0.57360035 86.559444,0.24560312 86.1875,0.03320312 85.908542,-0.12609687 85.581663,-0.22172665 85.240234,-0.24023438 Z M 84.607422,2.1054688 C 78.893997,9.9476794 57.151085,40.083746 55.412109,42.494141 52.971867,39.511934 50.923722,37.001058 48.773438,34.361328 Z M 4.9003906,20.201172 c 0.9761609,-9.6e-4 2.2642099,6.2e-4 3.5488282,0.002 2.5692362,0.0026 5.1210932,0.0078 5.1210932,0.0078 l 0.02149,0 0.02148,-0.002 c 0,0 0.486236,-0.01807 1.042969,0.03516 0.556733,0.05323 1.158641,0.306694 1.119141,0.269531 -0.01459,-0.01372 0.210379,0.220016 0.492187,0.537109 0.281808,0.317094 0.662176,0.753516 1.126953,1.289063 0.929555,1.07109 2.193426,2.540887 3.673828,4.271484 8.577817,10.050719 16.311664,19.177668 25.109375,29.587891 -0.588737,0.882521 -2.779023,4.145443 -4.167968,5.578125 -0.867638,0.894959 -1.472907,1.433878 -2,1.734375 -0.527094,0.300497 -1.002585,0.422183 -1.857422,0.443359 -1.059952,0.02473 -2.002058,-0.469146 -3.695313,-2.46875 C 24.021412,48.801912 13.064481,36.559701 2.3691406,24.097656 1.7465939,23.361318 1.5,22.994655 1.5,22.34375 c 0,-1.078836 0.7727199,-1.953855 1.7890625,-2.132812 0.010812,-0.0017 0.00776,-4.6e-4 0.017578,-0.002 l 0.00195,0 c 0.017151,-4e-4 0.033344,-0.0016 0.0625,-0.002 0.078302,-9.33e-4 0.194534,-0.0013 0.3398437,-0.002 0.2906195,-0.0014 0.7013726,-0.0034 1.1894531,-0.0039 z"
         transform="matrix(7.5000002,0,0,-7.5000002,-3.519531,538.73114)"
         id="path4338"
         inkscape:connector-curvature="0"
         sodipodi:nodetypes="sccccscccssssscccscccccccsccccscccccccccccsscccccccsccccssscccccccccscssccsscccsccccccc" /></g></g></svg>