<?xml version="1.0" encoding="UTF-8" standalone="no"?>
<!-- Created with Inkscape (http://www.inkscape.org/) -->

<svg
   xmlns:dc="http://purl.org/dc/elements/1.1/"
   xmlns:cc="http://creativecommons.org/ns#"
   xmlns:rdf="http://www.w3.org/1999/02/22-rdf-syntax-ns#"
   xmlns:svg="http://www.w3.org/2000/svg"
   xmlns="http://www.w3.org/2000/svg"
   xmlns:sodipodi="http://sodipodi.sourceforge.net/DTD/sodipodi-0.dtd"
   xmlns:inkscape="http://www.inkscape.org/namespaces/inkscape"
   id="svg4326"
   version="1.1"
   inkscape:version="0.91+devel+osxmenu r12844"
   xml:space="preserve"
   width="86.576202"
   height="71.831223"
   viewBox="0 0 86.576203 71.831223"
   sodipodi:docname="gm-logo-bw.svg"><metadata
     id="metadata4332"><rdf:RDF><cc:Work
         rdf:about=""><dc:format>image/svg+xml</dc:format><dc:type
           rdf:resource="http://purl.org/dc/dcmitype/StillImage" /><dc:title></dc:title></cc:Work></rdf:RDF></metadata><defs
     id="defs4330" /><sodipodi:namedview
     pagecolor="#ffffff"
     bordercolor="#666666"
     borderopacity="1"
     objecttolerance="10"
     gridtolerance="10"
     guidetolerance="10"
     inkscape:pageopacity="0"
     inkscape:pageshadow="2"
     inkscape:window-width="1502"
     inkscape:window-height="995"
     id="namedview4328"
     showgrid="false"
     inkscape:zoom="11.220584"
     inkscape:cx="43.456593"
     inkscape:cy="28.698117"
     inkscape:window-x="183"
     inkscape:window-y="50"
     inkscape:window-maximized="0"
     inkscape:current-layer="g4336"
     fit-margin-top="0"
     fit-margin-left="0"
     fit-margin-right="0"
     fit-margin-bottom="0" /><g
     id="g4334"
     inkscape:groupmode="layer"
     inkscape:label="ink_ext_XXXXXX"
     transform="matrix(1.3333333,0,0,-1.3333333,0.46927079,71.830817)"><g
       id="g4336"
       transform="scale(0.1,0.1)"><path
         d="m 137.52245,200.05157 c 0,0 -129.06542,-158.24297 -129.22948,-158.48127 C 3.34375,35.7148 0,30.7695 0,23.5625 0,11.8633 8.47656,2.15625 19.6133,0.183594 19.7461,0.167969 19.8945,0.0898438 20.0195,0.0664063 l 0.3711,0 c 1.0977,-0.1562501 77.6446,0 77.6446,0 0,0 14.6528,0 21.6598,4.2968737 7.024,4.29688 19.106,19.62892 19.106,19.62892 l 73.40497,91.45875 -74.68352,84.60062"
         style="fill:#4f4c4c;fill-opacity:1;fill-rule:nonzero;stroke:none"
         id="path4338"
         inkscape:connector-curvature="0"
         sodipodi:nodetypes="ccscccccccc" /><path
         d="M 628.223,530.492 345.13718,275.66929 409.77854,204.03438 c 0,0 191.50442,265.45866 231.48346,320.23862 4.48566,5.70166 -5.72356,12.75868 -13.039,6.219"
         style="fill:#ffffff;fill-opacity:1;fill-rule:nonzero;stroke:#4f4c4c;stroke-width:15;stroke-miterlimit:4;stroke-dasharray:none;stroke-opacity:1"
         id="path4340"
         inkscape:connector-curvature="0"
         sodipodi:nodetypes="ccccc" /><path
         d="M 8.51953,353.16 C 8.64844,352.973 183.594,152.805 249.18,72.742198 c 13.27341,-15.674871 22.89,-21.4258 33.625,-21.1719 14.351,0.3555 20.84856,4.907448 34.136,18.6133 13.28744,13.705852 35.29851,47.527812 35.29851,47.527812 0,0 -222.92282,263.80902 -232.30551,272.63659 -5.2841,4.97147 -21.6606,4.304 -21.6606,4.304 0,0 -76.5468,0.157 -77.6484,0 l -0.3672,0 c -0.1445,-0.019 -0.2734,-0.097 -0.4062,-0.117 C 8.70703,392.574 0.230469,382.867 0.230469,371.156 0.230469,363.949 3.58203,359 8.51953,353.16"
         style="fill:#ffffff;fill-opacity:1;fill-rule:nonzero;stroke:#4f4c4c;stroke-width:15;stroke-miterlimit:4;stroke-dasharray:none;stroke-opacity:1"
         id="path4344"
         inkscape:connector-curvature="0"
         sodipodi:nodetypes="cccscsccccsc" /><path
         d="m 558.477,41.5703 c -0.137,0.1758 -175.73468,213.55714 -240.664,294.1677 -13.28641,16.49525 -22.872,21.414 -33.614,21.16 -14.363,-0.339 -22.03314,-3.59226 -34.14,-18.601 L 207.98991,281.94614 423.95051,23.9922 c 5.86075,-7.000363 12.078,-15.33204 19.102,-19.62892 7.031,-4.2968737 21.66,-4.2968737 21.66,-4.2968737 0,0 80.55349,-0.1562501 81.66649,0 l 0.359,0 c 0.137,0.0234375 0.282,0.1015627 0.41,0.1171877 11.145,1.972656 19.629,11.679706 19.629,23.378906 0,7.207 -3.359,12.1523 -8.3,18.0078"
         style="fill:#4f4c4c;fill-opacity:1;fill-rule:nonzero;stroke:none"
         id="path4348"
         inkscape:connector-curvature="0"
         sodipodi:nodetypes="cscscscccccsc" /></g></g></svg>