<?xml version="1.0" encoding="utf-8"?>
<!-- Generator: Adobe Illustrator 16.0.0, SVG Export Plug-In . SVG Version: 6.00 Build 0)  -->
<!DOCTYPE svg PUBLIC "-//W3C//DTD SVG 1.1//EN" "http://www.w3.org/Graphics/SVG/1.1/DTD/svg11.dtd">
<svg version="1.1" xmlns="http://www.w3.org/2000/svg" xmlns:xlink="http://www.w3.org/1999/xlink" x="0px" y="0px" width="50px"
	 height="50px" viewBox="0 0 50 50" enable-background="new 0 0 50 50" xml:space="preserve">
<g id="Layer_1" display="none">
	<g display="inline">
		<path fill-rule="evenodd" clip-rule="evenodd" fill="#5AAD47" d="M25.045,0c0.664,0.084,1.332,0.152,1.993,0.254
			c5.534,0.854,9.598,3.791,12.222,8.711c1.391,2.608,1.896,5.435,1.754,8.367c-0.099,2.021-0.681,3.95-1.36,5.841
			c-1.84,5.114-4.399,9.876-7.267,14.467c-2.382,3.811-4.916,7.526-7.383,11.284c-0.058,0.088-0.131,0.165-0.242,0.303
			c-0.788-1.11-1.56-2.172-2.305-3.252c-3.655-5.301-7.098-10.73-9.947-16.516c-1.526-3.1-2.898-6.268-3.614-9.667
			c-1.73-8.21,2.889-16.402,11.054-18.96c1.255-0.394,2.608-0.471,3.916-0.698C24.077,0.098,24.286,0.045,24.497,0
			C24.679,0,24.862,0,25.045,0z M24.826,13.794c-2.212,0-4.425,0.009-6.638-0.008c-0.433-0.003-0.562,0.135-0.56,0.566
			c0.016,3.091,0.016,6.181,0,9.271c-0.002,0.424,0.113,0.572,0.553,0.569c2.414-0.019,4.828-0.019,7.242,0
			c0.446,0.003,0.555-0.155,0.55-0.573c-0.02-1.608,0.009-3.218-0.018-4.828c-0.009-0.485,0.099-0.693,0.63-0.656
			c0.673,0.047,1.354,0.042,2.028,0.002c0.515-0.032,0.696,0.112,0.685,0.658c-0.035,1.627-0.004,3.255-0.019,4.882
			c-0.003,0.375,0.112,0.53,0.5,0.512c0.529-0.024,1.063-0.033,1.591,0.003c0.488,0.033,0.628-0.152,0.626-0.628
			c-0.018-3.054-0.018-6.108,0-9.161c0.002-0.493-0.174-0.622-0.642-0.617C29.179,13.805,27.002,13.793,24.826,13.794z
			 M15.889,13.271c5.981,0,11.802,0,17.801,0c-0.281-0.219-0.424-0.344-0.58-0.45c-2.617-1.767-5.241-3.523-7.849-5.305
			c-0.363-0.249-0.603-0.243-0.96,0.001c-2.622,1.792-5.26,3.562-7.892,5.34C16.268,12.953,16.141,13.07,15.889,13.271z"/>
		<path fill-rule="evenodd" clip-rule="evenodd" fill="#FFFFFF" d="M24.826,13.794c2.176,0,4.353,0.011,6.528-0.009
			c0.468-0.004,0.644,0.125,0.642,0.617c-0.018,3.053-0.018,6.107,0,9.161c0.002,0.477-0.138,0.662-0.626,0.628
			c-0.527-0.037-1.062-0.028-1.591-0.003c-0.388,0.019-0.503-0.136-0.5-0.512c0.015-1.627-0.017-3.255,0.019-4.882
			c0.012-0.545-0.17-0.689-0.685-0.658c-0.674,0.04-1.355,0.045-2.028-0.002c-0.531-0.037-0.639,0.171-0.63,0.656
			c0.027,1.609-0.002,3.219,0.018,4.828c0.005,0.418-0.104,0.577-0.55,0.573c-2.414-0.019-4.828-0.019-7.242,0
			c-0.439,0.003-0.555-0.145-0.553-0.569c0.015-3.09,0.016-6.18,0-9.271c-0.002-0.431,0.127-0.569,0.56-0.566
			C20.401,13.803,22.614,13.794,24.826,13.794z M22.616,19.424c0-1.395,0-1.395-1.352-1.395c-1.438,0-1.438,0-1.438,1.417
			c0,1.363,0,1.363,1.378,1.363C22.616,20.81,22.616,20.81,22.616,19.424z"/>
		<path fill-rule="evenodd" clip-rule="evenodd" fill="#FFFFFF" d="M15.889,13.271c0.251-0.201,0.378-0.318,0.52-0.414
			c2.632-1.778,5.27-3.548,7.892-5.34c0.358-0.244,0.598-0.25,0.96-0.001c2.607,1.782,5.231,3.539,7.849,5.305
			c0.156,0.105,0.299,0.231,0.58,0.45C27.691,13.271,21.87,13.271,15.889,13.271z"/>
		<path fill-rule="evenodd" clip-rule="evenodd" fill="#5AAD47" d="M22.616,19.424c0,1.386,0,1.386-1.412,1.386
			c-1.378,0-1.378,0-1.378-1.363c0-1.417,0-1.417,1.438-1.417C22.616,18.029,22.616,18.029,22.616,19.424z"/>
	</g>
</g>
<g id="Layer_2" display="none">
	<g display="inline">
		<path fill="#5AAD47" d="M4.287,28.858c0-5.922,1.088-10.905,3.264-14.946c2.175-4.042,5.043-7.042,8.605-9.001
			s7.412-2.939,11.551-2.939c5.758,0,10.215,1.759,13.373,5.278c3.156,3.518,4.735,7.893,4.735,13.125
			c0,4.81-1.289,9.102-3.871,12.875c-2.579,3.774-5.322,5.662-8.229,5.662c-1.464,0-2.648-0.502-3.555-1.504
			c-0.904-1.002-1.357-2.739-1.357-5.21c-0.306,0.558-0.615,1.114-0.924,1.671c-0.941,1.514-1.958,2.688-3.046,3.522
			c-1.087,0.835-2.343,1.253-3.768,1.253c-2.31,0-3.999-0.913-5.067-2.738c-1.068-1.826-1.603-4.32-1.603-7.482
			c0-2.204,0.453-4.636,1.357-7.298c0.904-2.66,2.263-4.942,4.071-6.847c1.81-1.903,3.984-2.856,6.526-2.856
			c2.675,0,4.428,1.182,5.256,3.541l0.401-2.705l4.048-0.936L33.051,27.89c-0.271,1.47-0.467,2.622-0.592,3.457
			c-0.124,0.835-0.188,1.542-0.188,2.121c0,0.847,0.191,1.614,0.576,2.304c0.386,0.69,1.127,1.035,2.226,1.035
			c0.924,0,2.035-0.655,3.335-1.97c1.299-1.313,2.43-3.234,3.393-5.762c0.963-2.526,1.444-5.472,1.444-8.833
			c0-5.366-1.387-9.458-4.159-12.274c-2.771-2.817-6.518-4.226-11.233-4.226c-3.542,0-6.83,0.885-9.862,2.655
			c-3.032,1.771-5.492,4.548-7.378,8.334c-1.887,3.785-2.83,8.528-2.83,14.228c0,5.811,1.554,10.448,4.663,13.91
			c3.109,3.463,7.033,5.193,11.769,5.193c2.099,0,4.043-0.284,5.833-0.851c1.791-0.568,3.432-1.336,4.925-2.306
			c1.492-0.968,3.036-2.165,4.635-3.59l-0.375,2.104c-1.772,1.424-3.331,2.583-4.679,3.474c-1.348,0.89-2.903,1.631-4.664,2.22
			C28.127,49.705,26.158,50,23.982,50c-5.41,0-10.045-1.842-13.904-5.527C6.218,40.788,4.287,35.583,4.287,28.858z M26.783,13.127
			c-1.212,0-2.469,0.814-3.768,2.438c-1.3,1.625-2.243,3.418-2.83,5.377c-0.587,1.959-0.958,3.59-1.112,4.893
			c-0.154,1.303-0.231,2.422-0.231,3.357c0,2.694,0.333,4.559,0.996,5.595c0.664,1.035,1.64,1.553,2.931,1.553
			c1.54,0,2.859-1.053,3.956-3.156c1.098-2.104,1.936-4.425,2.514-6.964c0.577-2.539,0.953-4.48,1.126-5.828
			c0.174-1.347,0.262-2.388,0.262-3.122c0-0.937-0.305-1.86-0.911-2.773C29.108,13.583,28.132,13.127,26.783,13.127z"/>
	</g>
</g>
<g id="Layer_3">
	<g id="spD7qv_1_">
		<g>
			<path fill-rule="evenodd" clip-rule="evenodd" fill="#5AAD47" d="M8.311,12.48c0.558-2.549,1.943-4.455,4.266-5.713
				c0.683-0.369,0.965-0.487,1.409,0.321c1.752,3.182,3.599,6.311,5.417,9.455c0.179,0.309,0.589,0.557,0.12,0.95
				c-2.063,1.727-2.026,3.987-1.491,6.302c0.958,4.142,2.887,7.742,6.275,10.42c1.576,1.244,3.332,2.071,5.375,1.167
				c0.583-0.259,0.653,0.084,0.835,0.399c1.874,3.243,3.728,6.498,5.63,9.723c0.345,0.583,0.146,0.775-0.331,1.065
				c-1.088,0.667-2.328,0.938-3.479,1.441c-0.597,0-1.193,0-1.79,0c-2.822-0.199-4.843-1.938-6.788-3.693
				c-4.02-3.625-7.168-7.955-9.788-12.67c-2.216-3.991-4.093-8.124-5.141-12.601c-0.331-1.413-0.215-2.861-0.52-4.265
				C8.311,14.014,8.311,13.247,8.311,12.48z"/>
			<path fill-rule="evenodd" clip-rule="evenodd" fill="#5AAE47" d="M19.557,2c2.498,3.597,4.467,7.508,6.672,11.279
				c0.436,0.745,0.101,1.407-0.591,1.832c-0.973,0.597-1.972,1.155-2.973,1.704c-0.844,0.461-1.556,0.287-2.046-0.562
				c-1.98-3.432-3.953-6.869-5.931-10.302c-0.564-0.981-0.071-1.599,0.733-2.09C16.451,3.23,17.496,2.62,18.533,2
				C18.875,2,19.216,2,19.557,2z"/>
			<path fill-rule="evenodd" clip-rule="evenodd" fill="#5AAE47" d="M43.072,42.642c-0.973,1.754-2.814,2.271-4.45,3.029
				c-0.629,0.292-1.166-0.213-1.521-0.836c-1.768-3.104-3.582-6.183-5.341-9.292c-1.106-1.956-1.036-2.266,0.913-3.343
				c0.961-0.531,1.763-1.291,3.128-1.217c0.955,0.053,1.046,0.629,1.282,1.026c2.039,3.432,4.003,6.911,5.988,10.376
				C43.072,42.471,43.072,42.557,43.072,42.642z"/>
		</g>
	</g>
</g>
</svg>
