<?xml version="1.0" encoding="UTF-8" standalone="no"?>
<svg
   xmlns:dc="http://purl.org/dc/elements/1.1/"
   xmlns:cc="http://creativecommons.org/ns#"
   xmlns:rdf="http://www.w3.org/1999/02/22-rdf-syntax-ns#"
   xmlns:svg="http://www.w3.org/2000/svg"
   xmlns="http://www.w3.org/2000/svg"
   xml:space="preserve"
   enable-background="new 0 0 50 50"
   viewBox="0 0 50 50"
   height="50px"
   width="50px"
   y="0px"
   x="0px"
   id="Layer_1"
   version="1.1"><metadata
     id="metadata4341"><rdf:RDF><cc:Work
         rdf:about=""><dc:format>image/svg+xml</dc:format><dc:type
           rdf:resource="http://purl.org/dc/dcmitype/StillImage" /><dc:title></dc:title></cc:Work></rdf:RDF></metadata><defs
     id="defs4339" /><g
     id="g4327"><path
       style="clip-rule:evenodd;fill:#5aad47;fill-rule:evenodd"
       id="path4329"
       d="m 27.038,0.254 c 5.534,0.854 9.598,3.791 12.222,8.711 1.391,2.608 1.896,5.435 1.754,8.367 -0.099,2.021 -0.681,3.95 -1.36,5.841 -1.84,5.114 -4.399,9.876 -7.267,14.467 -2.382,3.811 -4.916,7.526 -7.383,11.284 -0.058,0.088 -0.131,0.165 -0.242,0.303 -0.788,-1.11 -1.56,-2.172 -2.305,-3.252 C 18.802,40.674 15.359,35.245 12.51,29.459 10.984,26.359 9.612,23.191 8.896,19.792 7.166,11.582 11.785,3.39 19.95,0.832 21.568504,0.41098718 23.237865,0.07054478 24.497,0 c 1.203235,-0.016165 1.791916,0.15631797 2.541,0.254 z" /><path
       id="path4335"
       d="M22.616,19.424c0,1.386,0,1.386-1.412,1.386   c-1.378,0-1.378,0-1.378-1.363c0-1.417,0-1.417,1.438-1.417C22.616,18.029,22.616,18.029,22.616,19.424z"
       fill="#5AAD47"
       clip-rule="evenodd"
       fill-rule="evenodd" /></g></svg>